{
    "asset" : {
        "generator" : "Khronos glTF Blender I/O v1.4.40",
        "version" : "2.0"
    },
    "scene" : 0,
    "scenes" : [
        {
            "name" : "Scene",
            "nodes" : [
                0,
                1
            ]
        }
    ],
    "nodes" : [
        {
            "mesh" : 0,
            "name" : "Cube",
            "scale" : [
                0.42820799350738525,
                1,
                0.32272613048553467
            ],
            "translation" : [
                0,
                1.7908084392547607,
                0
            ]
        },
        {
            "mesh" : 1,
            "name" : "Cube.001",
            "scale" : [
                0.42820799350738525,
                1,
                0.32272613048553467
            ],
            "translation" : [
                0,
                1.7908084392547607,
                0
            ]
        }
    ],
    "materials" : [
        {
            "alphaMode" : "BLEND",
            "doubleSided" : true,
            "emissiveFactor" : [
                0.030326474457979202,
                1,
                0
            ],
            "name" : "Material",
            "pbrMetallicRoughness" : {
                "baseColorFactor" : [
                    0,
                    0.8000000715255737,
                    0.010244868695735931,
                    0.6000000238418579
                ],
                "roughnessFactor" : 0.6499999761581421
            }
        }
    ],
    "meshes" : [
        {
            "name" : "Cube",
            "primitives" : [
                {
                    "attributes" : {
                        "POSITION" : 0,
                        "NORMAL" : 1,
                        "TEXCOORD_0" : 2
                    },
                    "indices" : 3,
                    "material" : 0
                }
            ]
        },
        {
            "name" : "Cube.001",
            "primitives" : [
                {
                    "attributes" : {
                        "POSITION" : 4,
                        "NORMAL" : 5,
                        "TEXCOORD_0" : 6
                    },
                    "indices" : 3,
                    "material" : 0
                }
            ]
        }
    ],
    "accessors" : [
        {
            "bufferView" : 0,
            "componentType" : 5126,
            "count" : 77,
            "max" : [
                1.7749168872833252,
                1,
                1
            ],
            "min" : [
                -1.7749168872833252,
                -2.326906681060791,
                -1
            ],
            "type" : "VEC3"
        },
        {
            "bufferView" : 1,
            "componentType" : 5126,
            "count" : 77,
            "type" : "VEC3"
        },
        {
            "bufferView" : 2,
            "componentType" : 5126,
            "count" : 77,
            "type" : "VEC2"
        },
        {
            "bufferView" : 3,
            "componentType" : 5123,
            "count" : 168,
            "type" : "SCALAR"
        },
        {
            "bufferView" : 4,
            "componentType" : 5126,
            "count" : 77,
            "max" : [
                1.7749168872833252,
                1,
                1
            ],
            "min" : [
                -1.7749168872833252,
                -2.326906681060791,
                -1
            ],
            "type" : "VEC3"
        },
        {
            "bufferView" : 5,
            "componentType" : 5126,
            "count" : 77,
            "type" : "VEC3"
        },
        {
            "bufferView" : 6,
            "componentType" : 5126,
            "count" : 77,
            "type" : "VEC2"
        }
    ],
    "bufferViews" : [
        {
            "buffer" : 0,
            "byteLength" : 924,
            "byteOffset" : 0
        },
        {
            "buffer" : 0,
            "byteLength" : 924,
            "byteOffset" : 924
        },
        {
            "buffer" : 0,
            "byteLength" : 616,
            "byteOffset" : 1848
        },
        {
            "buffer" : 0,
            "byteLength" : 336,
            "byteOffset" : 2464
        },
        {
            "buffer" : 0,
            "byteLength" : 924,
            "byteOffset" : 2800
        },
        {
            "buffer" : 0,
            "byteLength" : 924,
            "byteOffset" : 3724
        },
        {
            "buffer" : 0,
            "byteLength" : 616,
            "byteOffset" : 4648
        }
    ],
    "buffers" : [
        {
            "byteLength" : 5264,
            "uri" : "data:application/octet-stream;base64,"
        }
    ]
}
