{
    "asset" : {
        "generator" : "Khronos glTF Blender I/O v1.4.40",
        "version" : "2.0"
    },
    "scene" : 0,
    "scenes" : [
        {
            "name" : "Scene",
            "nodes" : [
                0,
                1
            ]
        }
    ],
    "nodes" : [
        {
            "mesh" : 0,
            "name" : "Screen.001",
            "translation" : [
                -0.08353366702795029,
                -1.3327823877334595,
                3.1759421825408936
            ]
        },
        {
            "mesh" : 1,
            "name" : "Screen.002",
            "translation" : [
                5.639418125152588,
                -0.19710130989551544,
                6.1481523513793945
            ]
        }
    ],
    "materials" : [
        {
            "doubleSided" : true,
            "emissiveFactor" : [
                1,
                1,
                1
            ],
            "name" : "Material",
            "pbrMetallicRoughness" : {}
        }
    ],
    "meshes" : [
        {
            "name" : "Cube.007",
            "primitives" : [
                {
                    "attributes" : {
                        "POSITION" : 0,
                        "NORMAL" : 1,
                        "TEXCOORD_0" : 2
                    },
                    "indices" : 3,
                    "material" : 0
                }
            ]
        },
        {
            "name" : "Cube.011",
            "primitives" : [
                {
                    "attributes" : {
                        "POSITION" : 4,
                        "NORMAL" : 5,
                        "TEXCOORD_0" : 6
                    },
                    "indices" : 3,
                    "material" : 0
                }
            ]
        }
    ],
    "accessors" : [
        {
            "bufferView" : 0,
            "componentType" : 5126,
            "count" : 34,
            "max" : [
                1.1178017854690552,
                1.1883102655410767,
                0.7350414395332336
            ],
            "min" : [
                -1.4917758703231812,
                -1.1885085105895996,
                0.13333189487457275
            ],
            "type" : "VEC3"
        },
        {
            "bufferView" : 1,
            "componentType" : 5126,
            "count" : 34,
            "type" : "VEC3"
        },
        {
            "bufferView" : 2,
            "componentType" : 5126,
            "count" : 34,
            "type" : "VEC2"
        },
        {
            "bufferView" : 3,
            "componentType" : 5123,
            "count" : 156,
            "type" : "SCALAR"
        },
        {
            "bufferView" : 4,
            "componentType" : 5126,
            "count" : 34,
            "max" : [
                0.07951891422271729,
                1.1327791213989258,
                1.2811988592147827
            ],
            "min" : [
                -0.9885196685791016,
                -1.0595569610595703,
                -1.0308470726013184
            ],
            "type" : "VEC3"
        },
        {
            "bufferView" : 5,
            "componentType" : 5126,
            "count" : 34,
            "type" : "VEC3"
        },
        {
            "bufferView" : 6,
            "componentType" : 5126,
            "count" : 34,
            "type" : "VEC2"
        }
    ],
    "bufferViews" : [
        {
            "buffer" : 0,
            "byteLength" : 408,
            "byteOffset" : 0
        },
        {
            "buffer" : 0,
            "byteLength" : 408,
            "byteOffset" : 408
        },
        {
            "buffer" : 0,
            "byteLength" : 272,
            "byteOffset" : 816
        },
        {
            "buffer" : 0,
            "byteLength" : 312,
            "byteOffset" : 1088
        },
        {
            "buffer" : 0,
            "byteLength" : 408,
            "byteOffset" : 1400
        },
        {
            "buffer" : 0,
            "byteLength" : 408,
            "byteOffset" : 1808
        },
        {
            "buffer" : 0,
            "byteLength" : 272,
            "byteOffset" : 2216
        }
    ],
    "buffers" : [
        {
            "byteLength" : 2488,
            "uri" : "data:application/octet-stream;base64,"
        }
    ]
}
